<svg width="84" height="58" fill="none" xmlns="http://www.w3.org/2000/svg"><rect x=".5" y=".5" width="83" height="57" rx="3.5" fill="#FEFEFE" stroke="#D8E1EB"/><path fill-rule="evenodd" clip-rule="evenodd" d="M28.481 23.453c.588 0 1.096.105 1.522.31.429.209.783.49 1.067.842.28.354.488.768.623 1.242.133.477.2.988.2 1.536a6.13 6.13 0 01-.467 2.385 5.989 5.989 0 01-3.184 3.27 5.839 5.839 0 01-2.383.484c-.11 0-.305-.002-.58-.009a8.4 8.4 0 01-.943-.08c-.355-.05-.731-.123-1.129-.221a5.68 5.68 0 01-1.129-.402l3.174-13.285 2.843-.439L26.96 23.8c.243-.11.488-.194.733-.255.246-.06.508-.092.79-.092zm-2.384 7.823c.428 0 .831-.104 1.21-.31.38-.206.708-.485.983-.832.274-.348.492-.74.65-1.179a4 4 0 00.24-1.371c0-.585-.098-1.041-.294-1.37-.196-.33-.557-.494-1.083-.494-.172 0-.394.033-.669.09a1.684 1.684 0 00-.744.386l-1.21 5.007c.073.012.137.025.192.036a1.955 1.955 0 00.394.038h.33zm8.746 1.991h-2.716l2.293-9.611h2.734l-2.312 9.611zm1.32-10.782c-.379 0-.722-.112-1.027-.337-.308-.224-.46-.569-.46-1.033a1.7 1.7 0 01.156-.721 1.92 1.92 0 011.01-.979 1.82 1.82 0 01.725-.145c.379 0 .72.112 1.026.337.305.226.459.571.459 1.033 0 .256-.052.497-.156.723a1.912 1.912 0 01-1.008.977 1.796 1.796 0 01-.724.145zm3.371-1.223l2.844-.439-.699 2.833h3.046l-.55 2.229h-3.028l-.806 3.362c-.074.28-.117.542-.128.785-.013.244.017.454.09.63a.797.797 0 00.395.41c.19.099.461.148.816.148.293 0 .578-.028.854-.083.274-.054.553-.13.834-.229l.203 2.085c-.367.134-.765.25-1.193.346-.429.099-.936.146-1.523.146-.844 0-1.498-.124-1.964-.373-.465-.25-.794-.592-.99-1.025-.195-.43-.282-.928-.257-1.488.025-.561.11-1.152.256-1.773l1.8-7.564zm5.071 8.168c0-.828.135-1.608.404-2.34a5.746 5.746 0 011.157-1.92 5.41 5.41 0 011.826-1.296c.714-.316 1.512-.476 2.393-.476.55 0 1.043.052 1.477.156.434.105.828.24 1.184.41l-.937 2.122a8.973 8.973 0 00-.76-.265 3.33 3.33 0 00-.963-.12c-.907 0-1.623.312-2.157.932-.53.62-.798 1.456-.798 2.504 0 .622.134 1.123.404 1.508.269.384.765.575 1.486.575a5.044 5.044 0 001.909-.383l.202 2.174a9.705 9.705 0 01-1.138.358 6.34 6.34 0 01-1.486.153c-.759 0-1.401-.11-1.926-.328a3.67 3.67 0 01-1.302-.887A3.338 3.338 0 0144.836 31a5.311 5.311 0 01-.23-1.57zm12.063 4.093c-.649 0-1.211-.098-1.689-.292a3.122 3.122 0 01-1.182-.822 3.55 3.55 0 01-.706-1.252 5.027 5.027 0 01-.238-1.597c0-.732.119-1.464.357-2.194a6.201 6.201 0 011.056-1.973 5.63 5.63 0 011.705-1.437c.671-.37 1.444-.556 2.311-.556.636 0 1.197.098 1.68.293.482.195.879.47 1.193.822.31.354.546.77.705 1.252.16.48.238 1.014.238 1.598 0 .73-.116 1.462-.347 2.195a6.328 6.328 0 01-1.028 1.972 5.382 5.382 0 01-1.697 1.434c-.679.371-1.466.557-2.358.557zm1.357-7.82a1.72 1.72 0 00-1.064.346 2.986 2.986 0 00-.77.878 4.32 4.32 0 00-.469 1.16 5 5 0 00-.155 1.197c0 .61.1 1.084.293 1.426.197.34.55.51 1.065.51a1.71 1.71 0 001.064-.347 3 3 0 00.77-.877c.208-.351.365-.74.47-1.16.102-.42.154-.82.154-1.196 0-.609-.098-1.085-.294-1.426-.195-.34-.55-.511-1.064-.511zm7.031 7.564H62.34l2.293-9.611h2.736l-2.312 9.611zm1.32-10.782c-.38 0-.723-.112-1.027-.337-.306-.224-.46-.569-.46-1.033 0-.255.053-.496.156-.721.104-.226.242-.42.414-.585.17-.164.37-.295.596-.394.225-.097.467-.145.724-.145.38 0 .722.112 1.028.337.305.226.46.571.46 1.033 0 .256-.055.497-.158.723a1.901 1.901 0 01-1.007.977 1.806 1.806 0 01-.727.145zm2.947 1.609c.206-.06.436-.132.687-.21a10.436 10.436 0 011.89-.383c.385-.044.823-.066 1.311-.066 1.432 0 2.42.416 2.965 1.244.544.829.639 1.962.285 3.399l-1.249 5.19H72.48l1.21-5.081c.074-.317.132-.624.175-.924a2.18 2.18 0 00-.01-.785.938.938 0 00-.338-.548c-.179-.14-.45-.21-.817-.21-.354 0-.714.038-1.082.11l-1.78 7.437h-2.734l2.22-9.173zM36.514 38.996l-.532.964h-.577a43.803 43.803 0 012.333-3.753h.516c.054.27.104.545.15.82a43.882 43.882 0 01.258 1.834c.04.34.081.705.125 1.1h-.533a20.893 20.893 0 01-.049-.49 15.51 15.51 0 00-.049-.475h-1.642zm1.593-.423a27.624 27.624 0 00-.233-1.765 26.005 26.005 0 00-1.114 1.765h1.347zm2.607 1.467c-.236 0-.443-.034-.622-.102a1.193 1.193 0 01-.449-.293 1.213 1.213 0 01-.27-.457 1.927 1.927 0 01-.089-.604c0-.325.052-.636.155-.932.103-.295.25-.557.44-.784.19-.228.42-.41.688-.545.268-.135.567-.203.897-.203.283 0 .509.029.677.087.169.057.29.111.362.162l-.218.433a1.559 1.559 0 00-.848-.227 1.3 1.3 0 00-.674.176 1.69 1.69 0 00-.506.455 2.09 2.09 0 00-.315.628 2.313 2.313 0 00-.109.69c0 .705.306 1.057.92 1.057.13 0 .246-.01.35-.028.103-.017.194-.039.274-.062.08-.024.15-.05.212-.079l.163-.075.066.454c-.044.026-.1.053-.172.082-.07.029-.153.056-.247.081a2.635 2.635 0 01-.685.087zm3.054 0c-.236 0-.443-.034-.623-.102a1.193 1.193 0 01-.448-.293 1.213 1.213 0 01-.27-.457c-.06-.18-.09-.38-.09-.604 0-.325.052-.636.156-.932.103-.295.25-.557.44-.784.19-.228.42-.41.688-.545.268-.135.567-.203.897-.203.283 0 .508.029.677.087.168.057.289.111.361.162l-.217.433a1.559 1.559 0 00-.848-.227 1.3 1.3 0 00-.674.176 1.69 1.69 0 00-.506.455 2.09 2.09 0 00-.315.628 2.313 2.313 0 00-.109.69c0 .705.306 1.057.919 1.057.13 0 .247-.01.35-.028.104-.017.195-.039.275-.062.08-.024.15-.05.212-.079l.163-.075.065.454c-.043.026-.1.053-.17.082a2.129 2.129 0 01-.248.081 2.635 2.635 0 01-.685.087zm1.459-.08l.903-3.754h2.224l-.104.44h-1.7l-.272 1.131h1.511l-.103.428H46.18l-.32 1.316h1.826l-.103.438h-2.355zm4.701-3.791c.438 0 .769.083.992.249.223.166.334.408.334.725 0 .246-.046.458-.138.637a1.188 1.188 0 01-.395.441c-.17.116-.375.201-.614.257-.24.056-.505.085-.8.085h-.374l-.337 1.397h-.528l.892-3.704c.152-.036.313-.06.484-.07.17-.012.331-.017.484-.017zm-.066.444c-.257 0-.413.007-.467.021l-.359 1.49h.343c.152 0 .308-.014.467-.041.16-.027.303-.075.43-.143a.87.87 0 00.312-.285.82.82 0 00.123-.468c0-.206-.076-.353-.229-.442-.152-.088-.359-.132-.62-.132zm4.608-.407l-.103.44h-1.136l-.8 3.313h-.526l.799-3.314h-1.137l.104-.439h2.8zm-.489 3.754l.903-3.754h2.224l-.104.44h-1.701l-.272 1.131h1.511l-.103.428h-1.506l-.32 1.316h1.826l-.103.438H53.98zm4.692-3.791c.558 0 .975.13 1.25.392.276.262.414.615.414 1.059 0 .31-.05.61-.147.896-.098.287-.25.54-.457.761-.206.22-.47.395-.79.525-.322.13-.705.195-1.15.195-.153 0-.318-.007-.495-.021a2.638 2.638 0 01-.468-.076l.875-3.645c.153-.036.314-.06.484-.07.17-.011.332-.016.484-.016zm-.043.444c-.272 0-.435.007-.49.021l-.696 2.892c.03.007.078.014.147.02.07.005.181.007.337.007.287 0 .545-.047.775-.143.23-.095.425-.23.584-.401.16-.172.283-.375.37-.611a2.24 2.24 0 00.13-.778c0-.317-.092-.565-.277-.742-.184-.176-.478-.265-.88-.265zm5.767 3.347h-.527l.419-1.744h-1.745l-.419 1.743h-.527l.902-3.753h.528l-.381 1.571h1.745l.381-1.57h.527l-.903 3.752zm.833 0l.902-3.754h2.224l-.104.44H66.55l-.272 1.131h1.512l-.104.428H66.18l-.32 1.316h1.826l-.104.438H65.23zm4.7-3.791c.402 0 .72.08.956.243.236.163.353.401.353.715 0 .317-.093.584-.28.799-.186.215-.448.369-.785.462a8.44 8.44 0 01.332.68 8.174 8.174 0 01.332.891h-.539c-.05-.137-.103-.276-.157-.417a11.09 11.09 0 00-.166-.406 7.95 7.95 0 00-.324-.666 3.721 3.721 0 01-.282.01h-.419l-.353 1.479h-.528l.892-3.704a2.82 2.82 0 01.484-.07 7.49 7.49 0 01.484-.016zm-.066.444c-.257 0-.413.007-.468.021l-.342 1.42h.321c.149 0 .3-.011.457-.033a1.4 1.4 0 00.426-.127.833.833 0 00.315-.265.76.76 0 00.123-.453c0-.202-.077-.346-.23-.433-.155-.087-.356-.13-.602-.13zm1.416 3.347l.902-3.754h2.223l-.103.44H72.6l-.272 1.131h1.511l-.103.428H72.23l-.32 1.316h1.826l-.104.438h-2.353z" fill="#4D4D4D"/><path fill-rule="evenodd" clip-rule="evenodd" d="M14.487 33.522c4.002 0 7.246-3.231 7.246-7.217 0-3.987-3.244-7.218-7.246-7.218-4.002 0-7.246 3.231-7.246 7.218 0 3.986 3.244 7.217 7.246 7.217zm3.195-8.246c.144-.961-.59-1.477-1.594-1.822l.326-1.302-.795-.198-.318 1.268a30.75 30.75 0 00-.637-.15l.32-1.275-.795-.198-.326 1.302c-.173-.04-.343-.078-.508-.12v-.003l-1.096-.273-.212.846s.59.134.578.143c.322.08.38.293.37.46l-.37 1.483c.022.006.05.013.082.027l-.084-.021-.52 2.077c-.04.097-.14.244-.365.188.008.011-.578-.143-.578-.143l-.395.907 1.035.256c.192.048.381.099.567.146l-.33 1.317.795.197.326-1.302c.217.058.428.113.634.164l-.325 1.296.795.197.33-1.313c1.356.255 2.376.152 2.805-1.07.346-.984-.017-1.551-.731-1.921.52-.12.912-.46 1.016-1.163zm-1.817 2.538c-.246.984-1.909.452-2.448.318l.437-1.744c.54.135 2.268.4 2.011 1.426zm.246-2.552c-.224.894-1.608.44-2.057.329l.396-1.582c.449.111 1.894.32 1.661 1.253z" fill="#F7931A"/></svg>