<svg width="84" height="58" fill="none" xmlns="http://www.w3.org/2000/svg"><rect x=".5" y=".5" width="83" height="57" rx="3.5" fill="#FEFEFE" stroke="#D8E1EB"/><path fill-rule="evenodd" clip-rule="evenodd" d="M30.774 44.791v4.283h-.937v-.52c-.297.386-.749.628-1.362.628-1.209 0-2.157-.94-2.157-2.25 0-1.307.948-2.248 2.157-2.248.613 0 1.064.242 1.362.627v-.52h.937zm-2.182.77c-.812 0-1.308.619-1.308 1.372 0 .753.496 1.371 1.308 1.371.775 0 1.299-.592 1.299-1.371 0-.78-.524-1.371-1.3-1.371zm33.862 1.372c0-.753.496-1.371 1.308-1.371.776 0 1.299.591 1.299 1.37 0 .78-.523 1.372-1.3 1.372-.81 0-1.307-.618-1.307-1.371zm3.491-3.862v6.003h-.938v-.52c-.297.386-.749.628-1.362.628-1.209 0-2.157-.94-2.157-2.25 0-1.307.948-2.248 2.157-2.248.613 0 1.065.242 1.362.627v-2.24h.938zm-23.534 2.447c.604 0 .992.376 1.091 1.038h-2.237c.1-.618.478-1.038 1.146-1.038zm-2.129 1.415c0-1.336.884-2.25 2.148-2.25 1.208 0 2.038.914 2.047 2.25 0 .125-.01.242-.019.358h-3.201c.135.771.685 1.049 1.29 1.049a2.07 2.07 0 001.254-.448l.46.69c-.524.439-1.12.6-1.769.6-1.29 0-2.21-.887-2.21-2.25zm13.467 0c0-.753.497-1.371 1.308-1.371.776 0 1.3.591 1.3 1.37 0 .78-.524 1.372-1.3 1.372-.811 0-1.308-.618-1.308-1.371zm3.491-2.142v4.283h-.938v-.52c-.298.386-.748.628-1.361.628-1.21 0-2.157-.94-2.157-2.25 0-1.307.948-2.248 2.157-2.248.613 0 1.063.242 1.361.627v-.52h.938zm-8.785 2.142c0 1.3.91 2.249 2.3 2.249.65 0 1.082-.144 1.55-.51l-.45-.754c-.351.252-.721.386-1.128.386-.748-.01-1.299-.547-1.299-1.371 0-.825.55-1.362 1.3-1.371.406 0 .776.134 1.128.385l.45-.753c-.469-.367-.901-.51-1.55-.51-1.39 0-2.301.95-2.301 2.249zm10.95-1.622c.243-.376.596-.627 1.136-.627.19 0 .461.036.669.117l-.29.877a1.529 1.529 0 00-.586-.107c-.613 0-.92.394-.92 1.102v2.401h-.938v-4.283h.929v.52zm-23.994-.18c-.451-.294-1.073-.447-1.758-.447-1.093 0-1.796.52-1.796 1.37 0 .7.524 1.13 1.488 1.264l.443.063c.514.072.757.206.757.448 0 .331-.343.52-.983.52-.65 0-1.118-.206-1.434-.448l-.442.725c.514.377 1.163.556 1.867.556 1.245 0 1.966-.583 1.966-1.398 0-.753-.567-1.146-1.506-1.28l-.442-.064c-.406-.054-.73-.134-.73-.421 0-.314.306-.502.82-.502.55 0 1.083.207 1.344.368l.406-.753zm10.96.18c.243-.376.595-.627 1.136-.627.19 0 .46.036.668.117l-.289.877a1.53 1.53 0 00-.586-.107c-.614 0-.92.394-.92 1.102v2.401h-.938v-4.283h.93v.52zm-6.864-.52h-1.534v-1.3h-.947v1.3h-.875v.852h.875v1.953c0 .994.388 1.586 1.497 1.586.406 0 .875-.125 1.172-.331l-.27-.798c-.28.16-.586.242-.83.242-.469 0-.622-.287-.622-.717v-1.935h1.534v-.852zm-14.018 1.595v2.688h-.948v-2.383c0-.726-.306-1.13-.946-1.13-.623 0-1.055.395-1.055 1.139v2.374h-.948v-2.383c0-.726-.315-1.13-.938-1.13-.64 0-1.056.395-1.056 1.139v2.374h-.947v-4.283h.939v.529c.352-.502.802-.636 1.262-.636.66 0 1.128.287 1.425.762.398-.601.966-.771 1.516-.762 1.047.009 1.696.69 1.696 1.702z" fill="#231F20"/><path d="M49.308 37.514H35.1V12.149h14.208v25.365z" fill="#FF5F00"/><path d="M36.001 24.832c0-5.146 2.425-9.73 6.202-12.683A16.236 16.236 0 0032.168 8.7C23.2 8.7 15.93 15.922 15.93 24.832s7.27 16.131 16.237 16.131c3.788 0 7.273-1.289 10.035-3.449C38.425 34.561 36 29.977 36 24.832z" fill="#EB001B"/><path d="M68.477 24.832c0 8.91-7.27 16.131-16.238 16.131a16.242 16.242 0 01-10.036-3.449c3.778-2.953 6.203-7.537 6.203-12.682 0-5.146-2.425-9.73-6.203-12.683A16.242 16.242 0 0152.24 8.7c8.968 0 16.238 7.222 16.238 16.132z" fill="#F79E1B"/></svg>