<svg width="40" height="40" fill="none" xmlns="http://www.w3.org/2000/svg"><circle cx="20" cy="20" r="20" fill="#FEFEFE"/><path d="M20 20a4.875 4.875 0 100-9.75A4.875 4.875 0 0020 20zm3.25-4.875a3.25 3.25 0 11-6.5 0 3.25 3.25 0 016.5 0zm6.5 13c0 1.625-1.625 1.625-1.625 1.625h-16.25s-1.625 0-1.625-1.625 1.625-6.5 9.75-6.5 9.75 4.875 9.75 6.5zm-1.625-.006c-.002-.4-.25-1.603-1.352-2.704-1.06-1.06-3.053-2.165-6.773-2.165-3.721 0-5.713 1.105-6.773 2.165-1.102 1.101-1.349 2.304-1.352 2.704h16.25z" fill="#0E479D"/></svg>