<svg width="84" height="58" fill="none" xmlns="http://www.w3.org/2000/svg"><rect x=".5" y=".5" width="83" height="57" rx="3.5" fill="#FEFEFE" stroke="#D8E1EB"/><path d="M37.296 39.778h-5.593l3.498-20.3h5.592l-3.497 20.3zm20.273-19.804c-1.103-.411-2.853-.865-5.016-.865-5.523 0-9.412 2.764-9.436 6.716-.046 2.916 2.785 4.536 4.902 5.508 2.163.994 2.899 1.642 2.899 2.528-.022 1.36-1.749 1.986-3.359 1.986-2.233 0-3.429-.323-5.247-1.08l-.736-.324L40.793 39c1.312.561 3.728 1.059 6.237 1.08 5.868 0 9.688-2.72 9.734-6.932.022-2.311-1.473-4.082-4.695-5.53-1.956-.928-3.154-1.554-3.154-2.505.023-.864 1.014-1.749 3.222-1.749 1.818-.043 3.154.367 4.166.778l.505.215.76-4.383z" fill="#15195A"/><path fill-rule="evenodd" clip-rule="evenodd" d="M67.58 19.477h4.325l4.512 20.3H71.24s-.507-2.332-.667-3.044h-7.18l-1.174 3.045H56.35l8.306-18.616c.576-1.318 1.59-1.685 2.924-1.685zm-.345 7.43s-1.772 4.513-2.233 5.68h4.649c-.23-1.016-1.29-5.875-1.29-5.875l-.39-1.75c-.165.451-.403 1.07-.563 1.488-.11.283-.182.474-.173.456zm-59.763-7.43h8.998c1.22.043 2.209.41 2.531 1.707l1.955 9.326.001.003.599 2.808 5.476-13.844h5.914l-8.79 20.28h-5.914l-4.985-17.64c-1.72-.944-3.683-1.703-5.877-2.23l.092-.41z" fill="#15195A"/></svg>