<svg width="84" height="58" viewBox="0 0 84 58" fill="none" xmlns="http://www.w3.org/2000/svg">
<rect x="0.5" y="0.5" width="83" height="57" rx="3.5" fill="#FEFEFE" stroke="#D8E1EB"/>
<path fill-rule="evenodd" clip-rule="evenodd" d="M28.4811 23.453C29.0691 23.453 29.5766 23.5577 30.0033 23.7639C30.4319 23.972 30.7862 24.2522 31.0698 24.6047C31.3498 24.9589 31.5582 25.3732 31.6928 25.8475C31.8264 26.3236 31.8935 26.8349 31.8935 27.3827C31.8935 28.2234 31.739 29.0186 31.4264 29.7677C31.1142 30.5177 30.6902 31.1685 30.151 31.7235C29.6124 32.2782 28.9763 32.715 28.2428 33.0377C27.5102 33.3612 26.7142 33.5223 25.8593 33.5223C25.7487 33.5223 25.5544 33.5196 25.2798 33.5133C25.0053 33.5079 24.6895 33.4799 24.3361 33.4321C23.9805 33.3829 23.6045 33.3098 23.2071 33.2118C22.8103 33.1157 22.4333 32.9808 22.0781 32.8098L25.2522 19.5251L28.0951 19.086L26.9588 23.8C27.2021 23.6908 27.4472 23.606 27.6919 23.5446C27.9379 23.4851 28.2002 23.453 28.4811 23.453ZM26.0967 31.2763C26.5248 31.2763 26.928 31.1716 27.3072 30.9654C27.6873 30.7596 28.0153 30.4812 28.2899 30.1342C28.5644 29.7862 28.7824 29.3936 28.9409 28.955C29.0995 28.5168 29.1797 28.0596 29.1797 27.5835C29.1797 26.9991 29.0818 26.5429 28.8861 26.2135C28.6904 25.8849 28.3288 25.7202 27.8033 25.7202C27.6311 25.7202 27.4092 25.7527 27.1342 25.8109C26.8582 25.8737 26.6113 26.0023 26.3898 26.1959L25.1797 31.2028C25.2526 31.215 25.3174 31.2276 25.3722 31.2389C25.4262 31.2511 25.4855 31.2601 25.5449 31.2664C25.6078 31.2736 25.6794 31.2768 25.7659 31.2768C25.8525 31.2768 25.9621 31.2763 26.0967 31.2763Z" fill="#4D4D4D"/>
<path fill-rule="evenodd" clip-rule="evenodd" d="M34.8425 33.2673H32.127L34.4203 23.6556H37.1545L34.8425 33.2673ZM36.1636 22.4855C35.7844 22.4855 35.441 22.3727 35.1361 22.1479C34.8285 21.9241 34.6763 21.5793 34.6763 21.1149C34.6763 20.8595 34.7284 20.6194 34.8317 20.3938C34.9363 20.1682 35.0736 19.9732 35.2453 19.8085C35.417 19.6447 35.6154 19.5138 35.8411 19.415C36.068 19.318 36.3095 19.2697 36.5669 19.2697C36.9456 19.2697 37.2877 19.3821 37.5935 19.6072C37.8984 19.8333 38.0519 20.1781 38.0519 20.6398C38.0519 20.8961 38.0003 21.1371 37.8956 21.3627C37.7919 21.5883 37.6551 21.7824 37.4834 21.948C37.3135 22.1118 37.1128 22.2422 36.8876 22.3402C36.6606 22.4385 36.4205 22.4855 36.1636 22.4855Z" fill="#4D4D4D"/>
<path fill-rule="evenodd" clip-rule="evenodd" d="M39.5336 21.2621L42.3779 20.823L41.6793 23.6556H44.7251L44.1751 25.8845H41.1474L40.341 29.2469C40.2667 29.5272 40.2245 29.7889 40.2127 30.0317C40.1996 30.2763 40.2304 30.4861 40.3038 30.6626C40.3768 30.8395 40.5081 30.9758 40.6984 31.0728C40.8878 31.1707 41.1592 31.2199 41.5144 31.2199C41.807 31.2199 42.0925 31.1924 42.3684 31.1369C42.6425 31.0832 42.9206 31.0074 43.202 30.9085L43.4045 32.993C43.0375 33.127 42.6402 33.2425 42.2121 33.3395C41.7835 33.4375 41.2756 33.4849 40.6889 33.4849C39.8453 33.4849 39.1911 33.3608 38.7254 33.1121C38.2601 32.8616 37.9312 32.52 37.7341 32.0873C37.5397 31.6563 37.4532 31.159 37.4777 30.5989C37.5031 30.0376 37.5878 29.4473 37.7341 28.8259L39.5336 21.2621Z" fill="#4D4D4D"/>
<path fill-rule="evenodd" clip-rule="evenodd" d="M44.6055 29.4306C44.6055 28.6025 44.74 27.8223 45.0091 27.0907C45.2773 26.3592 45.6642 25.7198 46.1662 25.1706C46.6664 24.6241 47.2753 24.1913 47.992 23.8741C48.7056 23.5577 49.5043 23.3984 50.385 23.3984C50.9359 23.3984 51.4284 23.4499 51.8615 23.5541C52.2965 23.6588 52.6902 23.7946 53.0458 23.9648L52.1093 26.0862C51.8647 25.9874 51.6105 25.9003 51.3482 25.8209C51.0854 25.7405 50.7647 25.7017 50.3855 25.7017C49.4794 25.7017 48.7627 26.0126 48.2294 26.6327C47.6984 27.2537 47.4307 28.089 47.4307 29.1373C47.4307 29.7587 47.5652 30.2605 47.8353 30.645C48.1039 31.029 48.6 31.2199 49.3208 31.2199C49.6765 31.2199 50.0194 31.1829 50.3483 31.1107C50.6795 31.0376 50.9717 30.946 51.2295 30.8368L51.432 33.011C51.0886 33.1442 50.7099 33.2642 50.2944 33.3689C49.8781 33.4704 49.3824 33.5223 48.8075 33.5223C48.0491 33.5223 47.4067 33.4122 46.8816 33.1942C46.3561 32.9731 45.9216 32.6793 45.5795 32.3075C45.2357 31.9347 44.9887 31.4993 44.8361 30.9997C44.6829 30.5019 44.6055 29.9776 44.6055 29.4306H44.6055Z" fill="#4D4D4D"/>
<path fill-rule="evenodd" clip-rule="evenodd" d="M56.6677 33.5232C56.0194 33.5232 55.4567 33.4253 54.9792 33.2308C54.5031 33.0358 54.1089 32.7628 53.7968 32.4086C53.4846 32.0561 53.2504 31.6382 53.0905 31.1572C52.9301 30.6766 52.8535 30.1436 52.8535 29.5601C52.8535 28.8277 52.9718 28.0957 53.2101 27.3656C53.4475 26.6345 53.7995 25.9774 54.2661 25.393C54.7287 24.8077 55.2991 24.3294 55.9714 23.9562C56.6424 23.5861 57.4148 23.3998 58.282 23.3998C58.9181 23.3998 59.4785 23.4981 59.9623 23.6926C60.4439 23.8876 60.8408 24.1624 61.1548 24.5149C61.4651 24.8691 61.7011 25.2852 61.8597 25.7671C62.0196 26.2469 62.098 26.7812 62.098 27.3651C62.098 28.0953 61.9816 28.8272 61.7505 29.5597C61.519 30.288 61.1761 30.9469 60.723 31.5322C60.2709 32.1166 59.7055 32.5945 59.0263 32.9663C58.3472 33.3373 57.5603 33.5232 56.6677 33.5232ZM58.0246 25.7026C57.6219 25.7026 57.2662 25.8191 56.9613 26.0492C56.6555 26.2816 56.3986 26.574 56.1916 26.9265C55.9823 27.2803 55.8269 27.6675 55.7222 28.0867C55.6185 28.5078 55.5673 28.9053 55.5673 29.2835C55.5673 29.8932 55.6661 30.3679 55.86 30.71C56.057 31.0498 56.4104 31.2208 56.9246 31.2208C57.3287 31.2208 57.6826 31.1053 57.9893 30.8729C58.2933 30.6423 58.5502 30.3499 58.759 29.9965C58.967 29.6445 59.1237 29.2564 59.2284 28.8363C59.3312 28.4166 59.3833 28.0168 59.3833 27.6395C59.3833 27.0312 59.285 26.5555 59.0893 26.2139C58.8936 25.8732 58.5384 25.7026 58.0246 25.7026Z" fill="#4D4D4D"/>
<path fill-rule="evenodd" clip-rule="evenodd" d="M65.0563 33.2673H62.3389L64.6322 23.6556H67.3677L65.0563 33.2673ZM66.3755 22.4855C65.9968 22.4855 65.6534 22.3727 65.3489 22.1479C65.0427 21.9241 64.8891 21.5793 64.8891 21.1149C64.8891 20.8595 64.9416 20.6194 65.0454 20.3938C65.1491 20.1682 65.2869 19.9732 65.4586 19.8085C65.6294 19.6447 65.8296 19.5138 66.0548 19.415C66.2804 19.318 66.5219 19.2697 66.7788 19.2697C67.1584 19.2697 67.5014 19.3821 67.8067 19.6072C68.1125 19.8333 68.2666 20.1781 68.2666 20.6398C68.2666 20.8961 68.2118 21.1371 68.1089 21.3627C68.0061 21.5883 67.8688 21.7824 67.6975 21.948C67.5254 22.1118 67.3279 22.2422 67.1022 22.3402C66.8748 22.4385 66.6338 22.4855 66.3755 22.4855Z" fill="#4D4D4D"/>
<path fill-rule="evenodd" clip-rule="evenodd" d="M69.3229 24.0938C69.5291 24.0338 69.7592 23.9616 70.0098 23.8831C70.2612 23.8046 70.5416 23.7314 70.8552 23.6656C71.1655 23.5979 71.5153 23.5433 71.9003 23.4999C72.2854 23.4566 72.7235 23.4354 73.2115 23.4354C74.6431 23.4354 75.6308 23.8506 76.1758 24.6791C76.7199 25.5077 76.8146 26.6413 76.4607 28.0777L75.2121 33.2673H72.4789L73.6894 28.1869C73.7628 27.8696 73.8213 27.5628 73.8639 27.2631C73.9074 26.9666 73.9046 26.7049 73.8544 26.4784C73.8068 26.2545 73.6926 26.0718 73.5164 25.9296C73.337 25.7893 73.066 25.7198 72.6986 25.7198C72.3448 25.7198 71.9846 25.7577 71.6167 25.8308L69.8367 33.2673H67.1025L69.3229 24.0938Z" fill="#4D4D4D"/>
<path fill-rule="evenodd" clip-rule="evenodd" d="M36.5143 38.9958L35.9816 39.9598H35.4053C35.8112 39.2305 36.2072 38.559 36.5932 37.9453C36.9792 37.3315 37.3606 36.7521 37.7376 36.207H38.2541C38.3084 36.4777 38.3583 36.7517 38.4036 37.0274C38.4489 37.3036 38.4933 37.5933 38.5368 37.8965C38.5803 38.1998 38.6219 38.5216 38.6618 38.8609C38.7017 39.2003 38.7433 39.5663 38.7868 39.9602H38.2541C38.2359 39.7978 38.2196 39.6344 38.2051 39.4701C38.1906 39.3059 38.1743 39.1479 38.1562 38.9963H36.5143V38.9958ZM38.1073 38.573C38.0783 38.281 38.0447 37.99 38.0067 37.7011C37.9686 37.4123 37.9242 37.1145 37.8735 36.8076C37.7466 36.9917 37.589 37.2296 37.4005 37.5197C37.212 37.8108 36.9982 38.1614 36.759 38.573H38.1073Z" fill="#4D4D4D"/>
<path fill-rule="evenodd" clip-rule="evenodd" d="M40.714 40.0406C40.4784 40.0406 40.2709 40.0063 40.0915 39.9377C39.9121 39.8691 39.7626 39.7716 39.643 39.6452C39.5234 39.5193 39.4337 39.3664 39.3739 39.1876C39.3141 39.0089 39.2842 38.8077 39.2842 38.5838C39.2842 38.2589 39.3358 37.9484 39.4391 37.6524C39.5424 37.3568 39.6892 37.0951 39.8795 36.8676C40.0698 36.6402 40.299 36.4588 40.5672 36.3229C40.8354 36.1876 41.134 36.1199 41.4643 36.1199C41.747 36.1199 41.9726 36.1488 42.1411 36.2065C42.3097 36.2643 42.4302 36.3184 42.5027 36.369L42.2852 36.8022C42.2014 36.748 42.0886 36.6966 41.9454 36.6479C41.8022 36.5996 41.6328 36.5748 41.4371 36.5748C41.187 36.5748 40.9623 36.6334 40.7629 36.7512C40.5636 36.8685 40.3951 37.0202 40.2573 37.2061C40.1196 37.392 40.0145 37.6014 39.942 37.8343C39.8695 38.0671 39.8333 38.2973 39.8333 38.5247C39.8333 39.2287 40.1395 39.5807 40.7521 39.5807C40.8825 39.5807 40.9994 39.5712 41.1027 39.5532C41.206 39.5356 41.2975 39.5144 41.3773 39.4909C41.457 39.4674 41.5277 39.4417 41.5893 39.4124C41.6509 39.3835 41.7053 39.3582 41.7524 39.3366L41.8176 39.7915C41.7741 39.8167 41.7171 39.8438 41.6464 39.8727C41.5757 39.9016 41.4933 39.9286 41.399 39.9544C41.3048 39.9796 41.1997 40.0004 41.0837 40.0166C40.9677 40.0329 40.8445 40.0406 40.714 40.0406Z" fill="#4D4D4D"/>
<path fill-rule="evenodd" clip-rule="evenodd" d="M43.7677 40.0406C43.5321 40.0406 43.3246 40.0063 43.1452 39.9377C42.9658 39.8691 42.8163 39.7716 42.6967 39.6452C42.5771 39.5193 42.4874 39.3664 42.4276 39.1876C42.3678 39.0089 42.3379 38.8077 42.3379 38.5838C42.3379 38.2589 42.3895 37.9484 42.4928 37.6524C42.5961 37.3568 42.7429 37.0951 42.9332 36.8676C43.1235 36.6402 43.3527 36.4588 43.6209 36.3229C43.8891 36.1876 44.1877 36.1199 44.518 36.1199C44.8007 36.1199 45.0263 36.1488 45.1948 36.2065C45.3634 36.2643 45.4839 36.3184 45.5564 36.369L45.3389 36.8022C45.2551 36.748 45.1423 36.6966 44.9991 36.6479C44.8559 36.5996 44.6865 36.5748 44.4908 36.5748C44.2407 36.5748 44.016 36.6334 43.8166 36.7512C43.6173 36.8685 43.4488 37.0202 43.311 37.2061C43.1733 37.392 43.0682 37.6014 42.9957 37.8343C42.9232 38.0671 42.887 38.2973 42.887 38.5247C42.887 39.2287 43.1933 39.5807 43.8058 39.5807C43.9363 39.5807 44.0531 39.5712 44.1564 39.5532C44.2597 39.5356 44.3512 39.5144 44.431 39.4909C44.5107 39.4674 44.5814 39.4417 44.643 39.4124C44.7046 39.3835 44.759 39.3582 44.8061 39.3366L44.8713 39.7915C44.8279 39.8167 44.7708 39.8438 44.7001 39.8727C44.6294 39.9016 44.547 39.9286 44.4527 39.9544C44.3585 39.9796 44.2534 40.0004 44.1374 40.0166C44.0214 40.0329 43.8982 40.0406 43.7677 40.0406Z" fill="#4D4D4D"/>
<path fill-rule="evenodd" clip-rule="evenodd" d="M45.2275 39.9593L46.13 36.2065H48.3536L48.2503 36.6452H46.5486L46.2768 37.777H47.7882L47.6849 38.2048H46.1789L45.8582 39.5207H47.6849L47.5816 39.9593H45.2275H45.2275Z" fill="#4D4D4D"/>
<path fill-rule="evenodd" clip-rule="evenodd" d="M49.9277 36.1686C50.3662 36.1686 50.697 36.2517 50.9199 36.4177C51.1428 36.5838 51.2542 36.8257 51.2542 37.1434C51.2542 37.3889 51.208 37.6014 51.1156 37.7797C51.0232 37.9584 50.8918 38.1055 50.7214 38.2215C50.5511 38.337 50.3463 38.4223 50.1071 38.4783C49.8679 38.5342 49.6015 38.5626 49.3079 38.5626H48.9328L48.5957 39.9598H48.0684L48.96 36.2557C49.1122 36.2196 49.2735 36.1962 49.4438 36.1853C49.6142 36.174 49.7755 36.1686 49.9277 36.1686ZM49.8625 36.6127C49.6051 36.6127 49.4493 36.6199 49.3949 36.6344L49.0361 38.1236H49.3786C49.5308 38.1236 49.6867 38.1105 49.8461 38.083C50.0056 38.0559 50.1488 38.008 50.2756 37.9399C50.4025 37.8713 50.5067 37.7765 50.5882 37.6551C50.6698 37.5342 50.7106 37.3785 50.7106 37.1872C50.7106 36.9814 50.6345 36.8343 50.4822 36.7454C50.33 36.6569 50.1234 36.6127 49.8625 36.6127Z" fill="#4D4D4D"/>
<path fill-rule="evenodd" clip-rule="evenodd" d="M54.4705 36.2065L54.3672 36.6452H53.231L52.4318 39.9593H51.9045L52.7036 36.6452H51.5674L51.6707 36.2065H54.4705Z" fill="#4D4D4D"/>
<path fill-rule="evenodd" clip-rule="evenodd" d="M53.9814 39.9593L54.8839 36.2065H57.1075L57.0042 36.6452H55.3025L55.0307 37.777H56.5421L56.4388 38.2048H54.9329L54.6121 39.5207H56.4388L56.3355 39.9593H53.9814H53.9814Z" fill="#4D4D4D"/>
<path fill-rule="evenodd" clip-rule="evenodd" d="M58.6731 36.1686C59.2312 36.1686 59.648 36.2995 59.9235 36.5612C60.199 36.823 60.3367 37.1759 60.3367 37.6199C60.3367 37.9304 60.2878 38.2292 60.1899 38.5157C60.092 38.8032 59.9398 39.0563 59.7332 39.277C59.5266 39.4968 59.263 39.6723 58.9422 39.8023C58.6214 39.9323 58.2382 39.9972 57.7924 39.9972C57.6401 39.9972 57.4752 39.99 57.2976 39.9756C57.12 39.9611 56.9642 39.9359 56.8301 39.8998L57.7054 36.2553C57.8576 36.2192 58.0189 36.1957 58.1892 36.1849C58.3596 36.174 58.5209 36.1686 58.6731 36.1686ZM58.6296 36.6127C58.3578 36.6127 58.1947 36.6199 58.1403 36.6344L57.4444 39.5261C57.4734 39.5334 57.5223 39.5397 57.5912 39.5451C57.6601 39.5505 57.7724 39.5532 57.9283 39.5532C58.2146 39.5532 58.4728 39.5058 58.703 39.4102C58.9331 39.3145 59.128 39.1809 59.2874 39.009C59.4469 38.8375 59.5701 38.634 59.6571 38.3975C59.7441 38.161 59.7876 37.902 59.7876 37.6204C59.7876 37.3027 59.6952 37.0554 59.5103 36.878C59.3255 36.7016 59.0319 36.6127 58.6296 36.6127Z" fill="#4D4D4D"/>
<path fill-rule="evenodd" clip-rule="evenodd" d="M64.3975 39.9593H63.8702L64.2888 38.2156H62.5436L62.125 39.9593H61.5977L62.5001 36.2065H63.0275L62.6469 37.777H64.3925L64.7731 36.2065H65.3004L64.3975 39.9593Z" fill="#4D4D4D"/>
<path fill-rule="evenodd" clip-rule="evenodd" d="M65.2295 39.9593L66.132 36.2065H68.3555L68.2518 36.6452H66.5501L66.2783 37.777H67.7897L67.6859 38.2048H66.18L65.8597 39.5207H67.6859L67.5822 39.9593H65.2295H65.2295Z" fill="#4D4D4D"/>
<path fill-rule="evenodd" clip-rule="evenodd" d="M69.9296 36.1686C70.3319 36.1686 70.6509 36.2499 70.8865 36.4123C71.1221 36.5748 71.2394 36.813 71.2394 37.1267C71.2394 37.4444 71.1465 37.7111 70.9599 37.9259C70.7732 38.1407 70.5114 38.295 70.1743 38.3884C70.2178 38.4647 70.2685 38.5613 70.3265 38.6786C70.3845 38.796 70.4443 38.9259 70.5059 39.0685C70.5671 39.2107 70.6273 39.3591 70.6853 39.5121C70.7433 39.666 70.7936 39.8145 70.8376 39.9589H70.2993C70.249 39.8217 70.196 39.6827 70.1417 39.5419C70.0878 39.4011 70.032 39.2657 69.9763 39.1358C69.9197 39.0058 69.8639 38.884 69.8073 38.7702C69.7516 38.6565 69.6995 38.5559 69.6524 38.4697C69.6053 38.4733 69.5581 38.476 69.511 38.4778C69.4639 38.4796 69.4172 38.4805 69.3697 38.4805H68.951L68.5977 39.9589H68.0703L68.9624 36.2548C69.1146 36.2187 69.2754 36.1953 69.4462 36.1844C69.6161 36.174 69.7774 36.1686 69.9296 36.1686ZM69.8644 36.6127C69.6071 36.6127 69.4512 36.6199 69.3964 36.6344L69.0539 38.0536H69.3751C69.5237 38.0536 69.6759 38.0428 69.8318 38.0211C69.9876 37.9995 70.1299 37.957 70.2581 37.8939C70.3868 37.8307 70.4919 37.7422 70.5734 37.6285C70.655 37.5148 70.6962 37.3641 70.6962 37.1763C70.6962 36.9742 70.6192 36.8298 70.4651 36.7431C70.3111 36.656 70.1104 36.6127 69.8644 36.6127Z" fill="#4D4D4D"/>
<path fill-rule="evenodd" clip-rule="evenodd" d="M71.2793 39.9593L72.1818 36.2065H74.4053L74.3016 36.6452H72.5999L72.3281 37.777H73.8395L73.7357 38.2048H72.2298L71.9095 39.5207H73.7357L73.632 39.9593H71.2793H71.2793Z" fill="#4D4D4D"/>
<path fill-rule="evenodd" clip-rule="evenodd" d="M14.4873 33.5223C18.4892 33.5223 21.7334 30.2908 21.7334 26.3046C21.7334 22.3184 18.4892 19.0869 14.4873 19.0869C10.4854 19.0869 7.24121 22.3184 7.24121 26.3046C7.24121 30.2908 10.4854 33.5223 14.4873 33.5223ZM17.6822 25.2757C17.8263 24.315 17.0919 23.7987 16.0879 23.4539L16.4137 22.152L15.6186 21.9543L15.3014 23.222C15.0926 23.1701 14.8778 23.1209 14.664 23.0726L14.9834 21.7968L14.1887 21.5992L13.8625 22.9007C13.6895 22.8614 13.5196 22.8226 13.3547 22.7815L13.3556 22.7775L12.2587 22.5049L12.0472 23.351C12.0472 23.351 12.637 23.4855 12.6248 23.4941C12.9469 23.5744 13.0054 23.7865 12.9954 23.9548L12.6244 25.4373C12.6466 25.4427 12.6751 25.4504 12.7073 25.4639C12.6805 25.4567 12.6524 25.4499 12.623 25.4427L12.1029 27.5204C12.0635 27.6174 11.9634 27.7636 11.7382 27.7081C11.7463 27.7194 11.1601 27.5646 11.1601 27.5646L10.765 28.4717L11.7998 28.7284C11.9923 28.7763 12.1813 28.8268 12.3666 28.8742L12.0377 30.1906L12.8319 30.3882L13.158 29.0858C13.3751 29.1441 13.5857 29.1987 13.7919 29.2497L13.467 30.5457L14.2621 30.7434L14.5915 29.4297C15.9479 29.6851 16.9677 29.5822 17.3968 28.3602C17.7429 27.376 17.3796 26.8087 16.666 26.4387C17.1861 26.3195 17.5776 25.9793 17.6822 25.2757ZM15.865 27.8141C15.619 28.7979 13.9563 28.2659 13.4172 28.1323L13.8539 26.3885C14.3931 26.5226 16.1219 26.7879 15.865 27.8141ZM16.111 25.2617C15.8868 26.1562 14.5027 25.7017 14.0537 25.5907L14.4497 24.0085C14.8987 24.1205 16.3443 24.3285 16.111 25.2617Z" fill="#F7931A"/>
</svg>
