<svg width="84" height="58" viewBox="0 0 84 58" fill="none" xmlns="http://www.w3.org/2000/svg">
<rect x="0.5" y="0.5" width="83" height="57" rx="3.5" fill="#FEFEFE" stroke="#D8E1EB"/>
<path fill-rule="evenodd" clip-rule="evenodd" d="M30.7743 44.7914V46.9328V49.0743H29.8369V48.5543C29.5395 48.9399 29.0884 49.182 28.4751 49.182C27.2661 49.182 26.3183 48.2415 26.3183 46.9328C26.3183 45.6252 27.2661 44.6837 28.4751 44.6837C29.0884 44.6837 29.5395 44.9257 29.8369 45.3114V44.7914H30.7743ZM28.5917 45.5616C27.7802 45.5616 27.2836 46.18 27.2836 46.9328C27.2836 47.6856 27.7802 48.3041 28.5917 48.3041C29.3671 48.3041 29.8906 47.7123 29.8906 46.9328C29.8906 46.1534 29.3671 45.5616 28.5917 45.5616ZM62.4538 46.9328C62.4538 46.18 62.9504 45.5616 63.7619 45.5616C64.5383 45.5616 65.0607 46.1534 65.0607 46.9328C65.0607 47.7123 64.5383 48.3041 63.7619 48.3041C62.9504 48.3041 62.4538 47.6856 62.4538 46.9328ZM65.9455 43.0714V46.9328V49.0743H65.007V48.5543C64.7097 48.9399 64.2585 49.182 63.6452 49.182C62.4362 49.182 61.4884 48.2415 61.4884 46.9328C61.4884 45.6252 62.4362 44.6837 63.6452 44.6837C64.2585 44.6837 64.7097 44.9257 65.007 45.3114V43.0714H65.9455ZM42.411 45.5175C43.015 45.5175 43.4032 45.8939 43.5023 46.5564H41.265C41.3651 45.938 41.743 45.5175 42.411 45.5175ZM40.2821 46.9328C40.2821 45.5975 41.1658 44.6837 42.4295 44.6837C43.6375 44.6837 44.4676 45.5975 44.4769 46.9328C44.4769 47.058 44.4676 47.1749 44.4583 47.2908H41.2567C41.3919 48.062 41.9422 48.34 42.5462 48.34C42.9788 48.34 43.4393 48.1779 43.8006 47.8918L44.2601 48.582C43.7366 49.021 43.1419 49.182 42.4925 49.182C41.202 49.182 40.2821 48.2948 40.2821 46.9328ZM53.7493 46.9328C53.7493 46.18 54.2459 45.5616 55.0574 45.5616C55.8327 45.5616 56.3562 46.1534 56.3562 46.9328C56.3562 47.7123 55.8327 48.3041 55.0574 48.3041C54.2459 48.3041 53.7493 47.6856 53.7493 46.9328ZM57.24 44.7914V46.9328V49.0743H56.3025V48.5543C56.0041 48.9399 55.554 49.182 54.9407 49.182C53.7317 49.182 52.7839 48.2415 52.7839 46.9328C52.7839 45.6252 53.7317 44.6837 54.9407 44.6837C55.554 44.6837 56.0041 44.9257 56.3025 45.3114V44.7914H57.24ZM48.4548 46.9328C48.4548 48.2323 49.3655 49.182 50.7551 49.182C51.4045 49.182 51.8371 49.0384 52.3058 48.6712L51.8557 47.9184C51.5036 48.1697 51.134 48.3041 50.7272 48.3041C49.9787 48.2948 49.4284 47.7574 49.4284 46.9328C49.4284 46.1083 49.9787 45.5708 50.7272 45.5616C51.134 45.5616 51.5036 45.696 51.8557 45.9472L52.3058 45.1944C51.8371 44.8273 51.4045 44.6837 50.7551 44.6837C49.3655 44.6837 48.4548 45.6334 48.4548 46.9328ZM59.4048 45.3114C59.6485 44.935 60.0005 44.6837 60.5415 44.6837C60.7315 44.6837 61.002 44.7196 61.2095 44.8006L60.9204 45.6785C60.7222 45.5975 60.524 45.5708 60.334 45.5708C59.7207 45.5708 59.4141 45.9647 59.4141 46.6734V49.0743H58.4756V44.7914H59.4048V45.3114ZM35.4109 45.1319C34.9598 44.8365 34.3382 44.6837 33.6527 44.6837C32.5604 44.6837 31.8573 45.2037 31.8573 46.0549C31.8573 46.7534 32.3807 47.1841 33.345 47.3185L33.788 47.381C34.3021 47.4528 34.5447 47.5872 34.5447 47.8292C34.5447 48.1605 34.202 48.3492 33.5618 48.3492C32.9124 48.3492 32.4437 48.143 32.1278 47.901L31.6859 48.6261C32.2001 49.0025 32.8495 49.182 33.5526 49.182C34.7977 49.182 35.5194 48.5994 35.5194 47.7841C35.5194 47.0313 34.9515 46.6375 34.013 46.5031L33.5711 46.4395C33.1654 46.3862 32.8402 46.3062 32.8402 46.019C32.8402 45.7052 33.1468 45.5175 33.661 45.5175C34.2113 45.5175 34.744 45.7237 35.0052 45.8847L35.4109 45.1319ZM46.3714 45.3114C46.614 44.935 46.9661 44.6837 47.5071 44.6837C47.6971 44.6837 47.9676 44.7196 48.1751 44.8006L47.886 45.6785C47.6878 45.5975 47.4895 45.5708 47.2996 45.5708C46.6863 45.5708 46.3797 45.9647 46.3797 46.6734V49.0743H45.4422V44.7914H46.3714V45.3114ZM39.5066 44.7914H37.9734V43.4919H37.0256V44.7914H36.1511V45.6426H37.0256V47.5964C37.0256 48.5902 37.4138 49.182 38.5226 49.182C38.9294 49.182 39.3982 49.0569 39.6955 48.8507L39.425 48.0528C39.1452 48.2138 38.8386 48.2948 38.5949 48.2948C38.1262 48.2948 37.9734 48.0077 37.9734 47.5779V45.6426H39.5066V44.7914ZM25.4892 46.3862V49.0743H24.5414V46.6908C24.5414 45.9647 24.2348 45.5616 23.5947 45.5616C22.9721 45.5616 22.5395 45.9565 22.5395 46.7V49.0743H21.5918V46.6908C21.5918 45.9647 21.2769 45.5616 20.6543 45.5616C20.0132 45.5616 19.5981 45.9565 19.5981 46.7V49.0743H18.6514V44.7914H19.5899V45.3196C19.9419 44.818 20.3921 44.6837 20.8525 44.6837C21.5112 44.6837 21.98 44.9709 22.2773 45.4457C22.6748 44.8447 23.2426 44.6745 23.7929 44.6837C24.8398 44.6929 25.4892 45.3739 25.4892 46.3862Z" fill="#231F20"/>
<path d="M49.3081 37.5138H35.0996V12.1486H49.3081V37.5138Z" fill="#FF5F00"/>
<path d="M36.0013 24.8317C36.0013 19.6863 38.4265 15.1028 42.2032 12.1491C39.4414 9.98918 35.9559 8.7 32.1679 8.7C23.2001 8.7 15.9307 15.9223 15.9307 24.8317C15.9307 33.7411 23.2001 40.9634 32.1679 40.9634C35.9559 40.9634 39.4414 39.6742 42.2032 37.5143C38.4265 34.5606 36.0013 29.9772 36.0013 24.8317Z" fill="#EB001B"/>
<path d="M68.4767 24.8317C68.4767 33.7411 61.2073 40.9634 52.2395 40.9634C48.4515 40.9634 44.9659 39.6742 42.2031 37.5143C45.9808 34.5606 48.406 29.9772 48.406 24.8317C48.406 19.6863 45.9808 15.1028 42.2031 12.1491C44.9659 9.98918 48.4515 8.7 52.2395 8.7C61.2073 8.7 68.4767 15.9223 68.4767 24.8317Z" fill="#F79E1B"/>
</svg>
