<svg width="84" height="58" viewBox="0 0 84 58" fill="none" xmlns="http://www.w3.org/2000/svg">
<rect x="0.5" y="0.5" width="83" height="57" rx="3.5" fill="#FEFEFE" stroke="#D8E1EB"/>
<path fill-rule="evenodd" clip-rule="evenodd" d="M38.2901 29.3714L38.6558 27.0392L37.8412 27.0201H33.9512L36.6546 9.80927C36.663 9.75716 36.6902 9.70878 36.73 9.67436C36.77 9.63994 36.8209 9.62106 36.8742 9.62106H43.4333C45.611 9.62106 47.1138 10.076 47.8982 10.9739C48.2661 11.3952 48.5004 11.8355 48.6138 12.3199C48.7327 12.8283 48.7346 13.4356 48.6187 14.1764L48.6102 14.2303V14.7051L48.9781 14.9143C49.2878 15.0793 49.534 15.2681 49.7228 15.4843C50.0374 15.8445 50.2409 16.3024 50.3269 16.845C50.4158 17.4031 50.3864 18.0675 50.2409 18.8195C50.073 19.6844 49.8017 20.4379 49.4353 21.0542C49.0984 21.6222 48.669 22.0934 48.1591 22.4584C47.6724 22.8053 47.0942 23.0687 46.4404 23.2372C45.8067 23.4028 45.0843 23.4864 44.292 23.4864H43.7816C43.4167 23.4864 43.0622 23.6184 42.7838 23.8549C42.5047 24.0964 42.3202 24.4264 42.2636 24.7873L42.225 24.9974L41.5788 29.1083L41.5496 29.2591C41.5418 29.3069 41.5285 29.3307 41.5089 29.3468C41.4915 29.3616 41.4664 29.3714 41.4419 29.3714H38.2901Z" fill="#28356A"/>
<path fill-rule="evenodd" clip-rule="evenodd" d="M49.3266 14.2852C49.3072 14.4109 49.2847 14.5393 49.2596 14.6712C48.3947 19.1304 45.4352 20.6709 41.6557 20.6709H39.7312C39.269 20.6709 38.8794 21.0078 38.8075 21.4656L37.5432 29.5181C37.4963 29.8188 37.7271 30.0896 38.0291 30.0896H41.4424C41.8465 30.0896 42.1898 29.7948 42.2535 29.3946L42.287 29.2206L42.9296 25.1258L42.971 24.9012C43.0338 24.4996 43.378 24.2046 43.7821 24.2046H44.2925C47.5994 24.2046 50.1883 22.8567 50.9449 18.9556C51.2609 17.326 51.0973 15.9653 50.2609 15.0083C50.0079 14.7198 49.6939 14.4803 49.3266 14.2852Z" fill="#298FC2"/>
<path fill-rule="evenodd" clip-rule="evenodd" d="M48.422 13.9229C48.2898 13.8842 48.1535 13.8492 48.0136 13.8175C47.873 13.7866 47.729 13.7593 47.5807 13.7353C47.0619 13.6511 46.4932 13.6112 45.8843 13.6112H40.7432C40.6165 13.6112 40.4962 13.6399 40.3887 13.6919C40.1515 13.8063 39.9754 14.0317 39.9327 14.3076L38.839 21.2629L38.8076 21.4657C38.8795 21.0078 39.2691 20.6709 39.7314 20.6709H41.6558C45.4353 20.6709 48.3948 19.1297 49.2597 14.6712C49.2856 14.5393 49.3073 14.4109 49.3267 14.2852C49.1079 14.1686 48.8709 14.0689 48.6157 13.9839C48.5526 13.9629 48.4876 13.9426 48.422 13.9229Z" fill="#22284F"/>
<path fill-rule="evenodd" clip-rule="evenodd" d="M39.9328 14.3076C39.9755 14.0317 40.1516 13.8063 40.3888 13.6926C40.4971 13.6405 40.6166 13.6118 40.7433 13.6118H45.8844C46.4934 13.6118 47.062 13.6519 47.5808 13.7361C47.7291 13.7599 47.8731 13.7874 48.0137 13.8183C48.1536 13.8498 48.2899 13.885 48.4221 13.9235C48.4877 13.9432 48.5528 13.9637 48.6164 13.9839C48.8716 14.0689 49.1088 14.1694 49.3276 14.2852C49.585 12.6373 49.3255 11.5154 48.4382 10.4994C47.4598 9.38075 45.6942 8.90207 43.4348 8.90207H36.8755C36.414 8.90207 36.0203 9.23896 35.949 9.69758L33.217 27.0854C33.1631 27.4294 33.4273 27.7397 33.7728 27.7397H37.8223L39.9328 14.3076Z" fill="#28356A"/>
<path fill-rule="evenodd" clip-rule="evenodd" d="M18.9644 34.1052H14.1819C13.8546 34.1052 13.5763 34.344 13.5252 34.6685L11.5909 46.9813C11.5525 47.2244 11.74 47.4433 11.9854 47.4433H14.2685C14.5958 47.4433 14.8741 47.2047 14.9253 46.8796L15.4469 43.5585C15.4972 43.2334 15.7761 42.9947 16.1029 42.9947H17.6168C20.767 42.9947 22.585 41.464 23.06 38.4311C23.2739 37.104 23.069 36.0614 22.4501 35.3312C21.7704 34.5294 20.5648 34.1052 18.9644 34.1052ZM19.5158 38.6024C19.2543 40.3253 17.9431 40.3253 16.6755 40.3253H15.9537L16.46 37.1075C16.4902 36.913 16.6578 36.7698 16.8537 36.7698H17.1845C18.0481 36.7698 18.8628 36.7698 19.2837 37.2641C19.5348 37.5589 19.6116 37.997 19.5158 38.6024Z" fill="#28356A"/>
<path fill-rule="evenodd" clip-rule="evenodd" d="M33.3817 38.4538H31.0915C30.8964 38.4538 30.7278 38.597 30.6978 38.7915L30.5964 39.4346L30.4363 39.2015C29.9406 38.479 28.8349 38.2375 27.7315 38.2375C25.2007 38.2375 23.0392 40.1621 22.6183 42.8617C22.3995 44.2083 22.7105 45.496 23.4715 46.394C24.1694 47.2196 25.168 47.5638 26.3559 47.5638C28.3951 47.5638 29.5257 46.2473 29.5257 46.2473L29.4237 46.8863C29.3853 47.1305 29.5727 47.3496 29.8168 47.3496H31.8795C32.2076 47.3496 32.4846 47.1108 32.5363 46.7858L33.774 38.9158C33.8132 38.6735 33.6263 38.4538 33.3817 38.4538ZM30.1893 42.9291C29.9684 44.2427 28.93 45.1245 27.6056 45.1245C26.9406 45.1245 26.4092 44.9104 26.0678 44.5046C25.7293 44.1017 25.6008 43.528 25.7083 42.889C25.9148 41.5867 26.9705 40.6759 28.2749 40.6759C28.9252 40.6759 29.4538 40.8931 29.8021 41.3021C30.1509 41.7157 30.2894 42.2929 30.1893 42.9291Z" fill="#28356A"/>
<path fill-rule="evenodd" clip-rule="evenodd" d="M45.4026 38.6507H43.1011C42.8815 38.6507 42.6753 38.7603 42.5509 38.9435L39.3768 43.6378L38.0314 39.1266C37.9467 38.8444 37.6874 38.6507 37.3936 38.6507H35.1322C34.8572 38.6507 34.6665 38.9203 34.7538 39.1801L37.2888 46.6491L34.9056 50.027C34.7182 50.2931 34.907 50.6589 35.2308 50.6589H37.5293C37.7475 50.6589 37.9516 50.5521 38.0754 50.3726L45.7297 39.2791C45.9131 39.0138 45.7248 38.6507 45.4026 38.6507Z" fill="#28356A"/>
<path fill-rule="evenodd" clip-rule="evenodd" d="M53.0745 34.1052H48.2915C47.965 34.1052 47.6867 34.344 47.6355 34.6685L45.7013 46.9813C45.6629 47.2244 45.8504 47.4433 46.0944 47.4433H48.5489C48.7767 47.4433 48.9718 47.2763 49.0074 47.0488L49.5564 43.5585C49.6068 43.2334 49.8859 42.9947 50.2124 42.9947H51.7257C54.8765 42.9947 56.694 41.464 57.1696 38.4311C57.3843 37.104 57.178 36.0614 56.5591 35.3312C55.88 34.5294 54.6752 34.1052 53.0745 34.1052ZM53.6264 38.6024C53.3655 40.3253 52.0543 40.3253 50.7858 40.3253H50.065L50.5719 37.1075C50.6019 36.913 50.7684 36.7698 50.9648 36.7698H51.2957C52.1585 36.7698 52.9739 36.7698 53.3948 37.2641C53.6459 37.5589 53.7221 37.997 53.6264 38.6024Z" fill="#298FC2"/>
<path fill-rule="evenodd" clip-rule="evenodd" d="M67.4899 38.4538H65.2011C65.0047 38.4538 64.8376 38.597 64.8082 38.7915L64.7068 39.4346L64.5459 39.2015C64.0502 38.479 62.9453 38.2375 61.8417 38.2375C59.3111 38.2375 57.1504 40.1621 56.7295 42.8617C56.5113 44.2083 56.8209 45.496 57.5817 46.394C58.2812 47.2196 59.2782 47.5638 60.4663 47.5638C62.5053 47.5638 63.6361 46.2473 63.6361 46.2473L63.5341 46.8863C63.4957 47.1305 63.6829 47.3496 63.9286 47.3496H65.9907C66.3172 47.3496 66.5956 47.1108 66.6467 46.7858L67.885 38.9158C67.9228 38.6735 67.7353 38.4538 67.4899 38.4538ZM64.2976 42.9291C64.0781 44.2427 63.0382 45.1245 61.7137 45.1245C61.0501 45.1245 60.5173 44.9104 60.1759 44.5046C59.8376 44.1017 59.7103 43.528 59.8165 42.889C60.0243 41.5867 61.0787 40.6759 62.383 40.6759C63.0333 40.6759 63.562 40.8931 63.9102 41.3021C64.2604 41.7157 64.3989 42.2929 64.2976 42.9291Z" fill="#298FC2"/>
<path fill-rule="evenodd" clip-rule="evenodd" d="M69.9991 34.4437L68.0363 46.9819C67.9979 47.225 68.1851 47.4439 68.4292 47.4439H70.4026C70.7307 47.4439 71.0088 47.2053 71.0592 46.8802L72.9948 34.568C73.0334 34.3249 72.8459 34.1052 72.6018 34.1052H70.3922C70.1971 34.1058 70.0293 34.2492 69.9991 34.4437Z" fill="#298FC2"/>
</svg>
