<svg width="40" height="40" viewBox="0 0 40 40" fill="none" xmlns="http://www.w3.org/2000/svg">
<circle cx="20" cy="20" r="20" fill="#FEFEFE"/>
<path d="M20 20C21.2929 20 22.5329 19.4864 23.4471 18.5721C24.3614 17.6579 24.875 16.4179 24.875 15.125C24.875 13.8321 24.3614 12.5921 23.4471 11.6779C22.5329 10.7636 21.2929 10.25 20 10.25C18.7071 10.25 17.4671 10.7636 16.5529 11.6779C15.6386 12.5921 15.125 13.8321 15.125 15.125C15.125 16.4179 15.6386 17.6579 16.5529 18.5721C17.4671 19.4864 18.7071 20 20 20ZM23.25 15.125C23.25 15.987 22.9076 16.8136 22.2981 17.4231C21.6886 18.0326 20.862 18.375 20 18.375C19.138 18.375 18.3114 18.0326 17.7019 17.4231C17.0924 16.8136 16.75 15.987 16.75 15.125C16.75 14.263 17.0924 13.4364 17.7019 12.8269C18.3114 12.2174 19.138 11.875 20 11.875C20.862 11.875 21.6886 12.2174 22.2981 12.8269C22.9076 13.4364 23.25 14.263 23.25 15.125ZM29.75 28.125C29.75 29.75 28.125 29.75 28.125 29.75H11.875C11.875 29.75 10.25 29.75 10.25 28.125C10.25 26.5 11.875 21.625 20 21.625C28.125 21.625 29.75 26.5 29.75 28.125ZM28.125 28.1185C28.1234 27.7188 27.8748 26.5162 26.773 25.4145C25.7135 24.355 23.7196 23.25 20 23.25C16.2787 23.25 14.2865 24.355 13.227 25.4145C12.1253 26.5162 11.8783 27.7188 11.875 28.1185H28.125Z" fill="#0E479D"/>
</svg>
