<svg width="84" height="58" viewBox="0 0 84 58" fill="none" xmlns="http://www.w3.org/2000/svg">
<rect x="0.5" y="0.5" width="83" height="57" rx="3.5" fill="#FEFEFE" stroke="#D8E1EB"/>
<path d="M37.2956 39.7782H31.7031L35.2011 19.4772H40.7933L37.2956 39.7782Z" fill="#15195A"/>
<path d="M57.5689 19.9735C56.4658 19.5627 54.7163 19.1092 52.5529 19.1092C47.0301 19.1092 43.141 21.8734 43.1172 25.8255C43.0713 28.7413 45.9017 30.3608 48.0185 31.333C50.1822 32.3265 50.9177 32.9749 50.9177 33.8605C50.8957 35.2205 49.1693 35.8474 47.5592 35.8474C45.3264 35.8474 44.1301 35.5242 42.312 34.7675L41.5756 34.4432L40.793 39.0003C42.1046 39.5612 44.5212 40.0589 47.0301 40.0807C52.8982 40.0807 56.7184 37.3593 56.7637 33.1477C56.786 30.8367 55.2915 29.0659 52.0694 27.6189C50.1134 26.6901 48.9155 26.0637 48.9155 25.1133C48.9384 24.2493 49.9287 23.3643 52.1367 23.3643C53.9548 23.321 55.2906 23.7312 56.3025 24.1417L56.8084 24.3572L57.5689 19.9735Z" fill="#15195A"/>
<path fill-rule="evenodd" clip-rule="evenodd" d="M67.5796 19.4772H71.9054L76.4171 39.7779H71.239C71.239 39.7779 70.7322 37.4454 70.5717 36.7326H63.3914C63.1837 37.2723 62.2176 39.7779 62.2176 39.7779H56.3496L64.6565 21.1616C65.2321 19.844 66.2456 19.4772 67.5796 19.4772ZM67.235 26.9062C67.235 26.9062 65.4628 31.42 65.0022 32.5863H69.6507C69.4207 31.5713 68.3616 26.7119 68.3616 26.7119L67.9708 24.9626C67.8062 25.4131 67.5682 26.0324 67.4077 26.4501C67.2988 26.7332 67.2256 26.9237 67.235 26.9062Z" fill="#15195A"/>
<path fill-rule="evenodd" clip-rule="evenodd" d="M7.47193 19.4772H16.4697C17.6893 19.5199 18.6789 19.8871 19.001 21.1837L20.9562 30.5102C20.9565 30.5111 20.9568 30.512 20.9571 30.5129L21.5556 33.3205L27.0325 19.4772H32.9461L24.1556 39.7567H18.2417L13.2572 22.1169C11.5373 21.1732 9.57446 20.4141 7.37988 19.8874L7.47193 19.4772Z" fill="#15195A"/>
</svg>
